<svg id="Capa_1" enable-background="new 0 0 479.058 479.058" height="512" viewBox="0 0 479.058 479.058" width="512" xmlns="http://www.w3.org/2000/svg"><path id="path-1_11_" d="m175.262 273.855c5.846 5.846 5.846 15.325 0 21.172-5.846 5.846-15.325 5.846-21.172 0-5.846-5.846-5.846-15.325 0-21.172 5.847-5.847 15.325-5.847 21.172 0" transform="translate(4.951 8.951)"/><path id="path-1_10_" d="m115.38 273.855c5.846 5.846 5.846 15.325 0 21.172-5.846 5.846-15.325 5.846-21.172 0-5.846-5.846-5.846-15.325 0-21.172s15.325-5.847 21.172 0" transform="translate(2.951 8.951)"/><path id="path-1_9_" d="m235.144 273.855c5.846 5.846 5.846 15.325 0 21.172-5.846 5.846-15.325 5.846-21.172 0-5.846-5.846-5.846-15.325 0-21.172 5.847-5.847 15.326-5.847 21.172 0" transform="translate(6.951 8.951)"/><path d="m464.087 29.941h-299.411c-8.275 0-14.971 6.696-14.971 14.971v74.853h-134.734c-8.275-.001-14.971 6.695-14.971 14.97v239.529c0 8.275 6.696 14.971 14.971 14.971h55.672l-10.307 41.285c-1.389 5.541.512 11.403 4.883 15.088 2.748 2.31 6.17 3.509 9.634 3.509 2.061 0 4.137-.424 6.082-1.287l131.826-58.596h101.621c8.275 0 14.971-6.696 14.971-14.971v-55.473l67.426 38.53c2.31 1.316 4.868 1.974 7.427 1.974 3.202 0 6.374-1.023 9.035-3.041 4.781-3.611 6.944-9.737 5.482-15.555l-10.307-41.286h55.672c8.275 0 14.971-6.696 14.971-14.971v-239.529c-.001-8.275-6.697-14.971-14.972-14.971zm-164.676 329.352h-89.823c-2.091 0-4.167.439-6.082 1.287l-106.68 47.426 7.515-30.117c1.126-4.474.117-9.21-2.719-12.836-2.836-3.64-7.193-5.76-11.798-5.76h-59.883v-209.588h269.47zm149.706-89.823h-59.882c-4.605 0-8.962 2.12-11.798 5.76-2.836 3.626-3.845 8.362-2.719 12.836l6.462 25.848-51.827-29.609v-149.57c0-8.275-6.696-14.971-14.971-14.971h-134.735v-59.882h269.47c-.001 0-.001 209.588 0 209.588z"/></svg>