<?xml version="1.0" encoding="utf-8"?>
<!-- Generator: Adobe Illustrator 22.0.0, SVG Export Plug-In . SVG Version: 6.00 Build 0)  -->
<svg version="1.1" id="Capa_1" xmlns="http://www.w3.org/2000/svg" xmlns:xlink="http://www.w3.org/1999/xlink" x="0px" y="0px"
	 viewBox="0 0 640 640" style="enable-background:new 0 0 640 640;" xml:space="preserve">
<g>
	<path d="M320,581c88.3,0,160-47.7,160-106.7V367.7c0-58.9-71.7-106.7-160-106.7s-160,47.8-160,106.7v106.7
		C160,533.3,231.7,581,320,581z"/>
	<path d="M608,303.7c-17.7,0-32,14.3-32,32v10.7h-90.9c-18.2-40.1-50.3-72.2-90.4-90.4v-80.3c0-5.9-4.8-10.7-10.7-10.7h-21.3v-64
		h128c17.7,0,32-14.3,32-32s-14.3-32-32-32H149.3c-17.7,0-32,14.3-32,32s14.3,32,32,32h128v64H256c-5.9,0-10.7,4.8-10.7,10.7V256
		c-40.1,18.2-72.2,50.3-90.4,90.4H64v-10.7c0-17.7-14.3-32-32-32S0,318,0,335.7v170.7c0,17.7,14.3,32,32,32s32-14.3,32-32v-10.7
		h90.9c41.1,91.2,148.3,131.8,239.4,90.7c40.3-18.1,72.5-50.4,90.7-90.7h91v10.7c0,17.7,14.3,32,32,32s32-14.3,32-32V335.7
		C640,318,625.7,303.7,608,303.7z M138.7,69c0-5.9,4.8-10.7,10.7-10.7h341.3c5.9,0,10.7,4.8,10.7,10.7s-4.8,10.7-10.7,10.7H149.3
		C143.4,79.7,138.7,74.9,138.7,69z M298.7,101h42.7v64h-42.7V101z M266.7,186.3h106.7v61.4c-34.8-10.7-71.9-10.7-106.7,0V186.3z
		 M42.7,506.3c0,5.9-4.8,10.7-10.7,10.7s-10.7-4.8-10.7-10.7V335.7c0-5.9,4.8-10.7,10.7-10.7s10.7,4.8,10.7,10.7V506.3z M64,474.3
		V367.7h82.7c-10.7,34.8-10.7,71.9,0,106.7H64V474.3z M320,581c-88.4,0-160-71.6-160-160s71.6-160,160-160s160,71.6,160,160
		C479.9,509.3,408.3,580.9,320,581z M493.3,474.3c10.7-34.8,10.7-71.9,0-106.7H576v106.7H493.3z M618.7,506.3
		c0,5.9-4.8,10.7-10.7,10.7s-10.7-4.8-10.7-10.7V335.7c0-5.9,4.8-10.7,10.7-10.7s10.7,4.8,10.7,10.7V506.3z"/>
	<path d="M322.8,264.5c39.7,0,71.8-14.2,71.8-31.7v-31.7c0-17.5-32.2-31.7-71.8-31.7S251,183.7,251,201.2v31.7
		C251,250.3,283.2,264.5,322.8,264.5z"/>
	<path d="M114.5,495.7c39.7,0,71.8-22.3,71.8-49.8v-49.8c0-27.5-32.2-49.8-71.8-49.8s-71.8,22.3-71.8,49.8v49.8
		C42.7,473.4,74.8,495.7,114.5,495.7z"/>
	<path d="M525.5,495.7c39.7,0,71.8-22.3,71.8-49.8v-49.8c0-27.5-32.2-49.8-71.8-49.8s-71.8,22.3-71.8,49.8v49.8
		C453.7,473.4,485.8,495.7,525.5,495.7z"/>
	<path d="M32,538.4c17.7,0,32-35,32-78.2V382c0-43.2-14.3-78.2-32-78.2s-32,35-32,78.1v78.2C0,503.4,14.3,538.4,32,538.4z"/>
	<path d="M608,538.4c17.7,0,32-35,32-78.2V382c0-43.2-14.3-78.2-32-78.2s-32,35.1-32,78.2v78.2C576,503.4,590.3,538.4,608,538.4z"/>
	<path d="M117.3,69c0,17.7,60.4,32,135,32h135c74.5,0,135-14.3,135-32s-60.4-32-135-32H252.2C177.7,37,117.3,51.3,117.3,69z"/>
	<path d="M320,186.3c23.6,0,42.7-15.9,42.7-35.6v-35.6c0-19.6-19.1-35.6-42.7-35.6s-42.7,15.9-42.7,35.6v35.6
		C277.3,170.4,296.4,186.3,320,186.3z"/>
	<g id="Capa_2_1_">
	</g>
</g>
</svg>
